<svg width="96" height="96" viewBox="0 0 96 96" fill="none" xmlns="http://www.w3.org/2000/svg">
<path d="M80 48V32.1667H24C21.8783 32.1667 19.8434 31.3326 18.3431 29.8479C16.8429 28.3633 16 26.3496 16 24.25C16 19.8958 19.6 16.3333 24 16.3333H72V32.1667" stroke="white" stroke-width="2" stroke-linecap="round" stroke-linejoin="round"/>
<path d="M16 24.25V71.75C16 76.1042 19.6 79.6667 24 79.6667H80V63.8333" stroke="white" stroke-width="2" stroke-linecap="round" stroke-linejoin="round"/>
<path d="M72 48C69.8783 48 67.8434 48.8341 66.3431 50.3187C64.8429 51.8034 64 53.817 64 55.9167C64 60.2708 67.6 63.8333 72 63.8333H88V48H72Z" stroke="white" stroke-width="2" stroke-linecap="round" stroke-linejoin="round"/>
</svg>
